<?xml version="1.0" encoding="utf-8"?>
<!-- Generator: Adobe Illustrator 26.0.1, SVG Export Plug-In . SVG Version: 6.00 Build 0)  -->
<svg version="1.1" id="Layer_1" xmlns="http://www.w3.org/2000/svg" xmlns:xlink="http://www.w3.org/1999/xlink" x="0px" y="0px"
	 viewBox="0 0 500 500" style="enable-background:new 0 0 500 500;" xml:space="preserve">
<style type="text/css">
	.st0{display:none;}
	.st1{display:inline;fill:#2D3A4B;}
	.st2{display:inline;fill:#FFE115;}
	.st3{fill:#999999;}
	.st4{display:inline;}
	.st5{fill:#2D3A4B;}
</style>
<g id="facebook" class="st0">
	<path class="st1" d="M357.6,70.7c6.1,2.8,8.4,7.7,8.2,14.4c-0.2,10.5-0.1,20.9-0.1,31.4c0,8.6-4.9,13.5-13.5,13.5
		c-7.2,0.1-14.3,0.1-21.5,0.1c-0.8,0-1.6,0.1-2.4,0.2c-3.4,0.7-3.9,1.3-4.2,4.8c-0.5,5.8-0.1,11.6-0.3,17.4c0,1.8,1,1.6,2.2,1.6
		c8.1,0,16.3,0.2,24.4-0.1c8.9-0.3,14,5.9,13.9,13.9c-0.2,11.7,0,23.4-0.1,35c0,8.6-4.9,13.5-13.4,13.5c-8.2,0-16.4,0.1-24.6-0.1
		c-2,0-2.3,0.6-2.3,2.4c0,28.5,0,57,0,85.5c0,7.3-3.5,12-9.7,13.4c-1.2,0.3-2.6,0.3-3.8,0.3c-12,0-24-0.2-36,0.1
		c-7.8,0.2-14.4-4.3-14.3-14.5c0.3-28,0.1-56,0.1-84.1c0-3.1,0-3.1-3.2-3.1c-6.3,0-12.6,0-18.8,0c-8.1,0-13.1-4.9-13.1-13.1
		c0-12.1,0-24.1,0-36.2c0-8.2,4.8-13,13-13.1c6.4,0,12.7-0.1,19.1,0.1c2.3,0.1,3.2-0.4,3.1-3c-0.1-7.2-0.2-14.3,0.2-21.5
		c1-17.4,6.9-32.8,20.2-44.6c8.6-7.7,18.9-11.9,30.2-13.9c0.4-0.1,1,0.1,1.2-0.5C327.3,70.7,342.4,70.7,357.6,70.7z M309.4,256.1
		c0-14.8,0-29.6,0-44.4c0-6.6,3-9.6,9.5-9.6c9.5,0,19-0.1,28.5,0c1.8,0,2.4-0.4,2.4-2.3c-0.1-9.6-0.1-19.2,0-28.7
		c0-1.9-0.5-2.4-2.4-2.4c-9.7,0.1-19.3,0.1-29,0c-5.4,0-8.9-2.9-9-8c-0.2-9.1-0.5-18.2,0.3-27.3c0.5-6.2,3-11.5,8.6-14.8
		c3.5-2.1,7.3-2.9,11.3-3c6.5-0.2,13-0.2,19.6-0.2c1.3,0,2-0.1,2-1.8c-0.1-9.1-0.1-18.2,0-27.3c0-1.2-0.3-1.7-1.6-1.7
		c-9.8,0.1-19.6-0.2-29.5,0.2c-11,0.4-21.2,3.5-29.7,10.9c-10.4,9.1-14.8,21-15.4,34.4c-0.5,9.6-0.2,19.3-0.2,29
		c0,6.3-3.2,9.4-9.5,9.4c-7.9,0-15.8,0.1-23.7,0c-1.6,0-2,0.4-2,2c0.1,9.7,0.1,19.5,0,29.2c0,1.9,0.5,2.2,2.3,2.2
		c8.3-0.1,16.6-0.1,24.9,0c4.4,0,7.4,2.9,7.9,7.2c0.1,1,0.1,2.1,0.1,3.1c0,29.6,0,59.3,0,88.9c0,1.9,0.5,2.4,2.4,2.3
		c10-0.1,20-0.1,29.9,0c1.9,0,2.4-0.4,2.4-2.3C309.4,286.2,309.4,271.1,309.4,256.1z"/>
</g>
<g id="twitter" class="st0">
	<path class="st1" d="M419.8,129.2c-4.1,6.5-8.1,13.1-12.2,19.6c-0.6,0.9-0.4,1.9-0.2,2.8c4,25.5,1.5,50.3-8.9,74
		c-5.8,13.3-14,25.1-23.5,36.1c-20,22.9-45.7,34.4-75.2,38.4c-30,4-59.3,0.9-88.1-7.8c-9.2-2.8-18.1-6.1-26.2-11.4
		c-2-1.3-3.9-2.8-5.7-4.5c-2.4-2.4-3.2-5.2-2-8.4c1.2-3.2,3.9-4.6,7.2-4.7c4.9-0.1,9.8,0.1,14.8,0c10.5-0.2,20.9-1.6,30.7-5.8
		c4.9-2.1,9.4-4.8,13.9-8.2c-2.9-0.9-5.7-1.6-8.4-2.5c-14.6-4.7-28-11.4-39-22.4c-2.3-2.3-3.7-4.7-2.8-8c0.9-3.2,3.2-4.9,6.3-5.6
		c2.2-0.5,4.3-1.2,7-1.9c-3.9-2.3-7.5-4.2-10.7-6.7c-13.7-10.1-21.6-23.8-24.5-40.4c-0.9-5.3,3.9-9.6,9.3-8.2
		c2.6,0.6,5.2,1.5,8.1,2.4c-1.2-3-2.4-5.7-3.2-8.5c-4.5-15.2-3.2-29.8,5.8-43.2c4-6,10.3-5.8,13.8,0.5c7.4,13.2,16.7,24.8,28.6,34.3
		c15.3,12.2,32.8,19.6,52.2,22.1c3.6,0.5,3.5,0.4,3.5-3.2c0.2-21.4,7.8-39.6,25.6-52c16.3-11.4,34-12.7,52.3-4.5
		c1.5,0.7,2.6,0.7,4,0c9.4-4.7,18.9-9.3,28.4-13.9c5.3-2.6,10.2-0.4,11.4,4.8c0.5,2-0.2,3.8-1.1,5.6c-3.4,6.8-6.7,13.5-10,20.3
		c-0.4,0.7-0.9,1.3-0.8,2.5c3.2-0.2,6.4-0.3,9.5-0.8c4.9-0.8,8.4,0.8,10.4,5.5C419.8,126.6,419.8,127.9,419.8,129.2z M216.2,221.4
		c6.8,4.6,13.8,7.8,21.2,10.4c7.7,2.7,15.7,4.2,23.7,5.7c6.4,1.2,8.5,7.8,4.2,12.5c-11,12.1-24.1,21-40.2,24.9
		c-3.6,0.9-7.3,1.4-11,2.2c0.1,0.3,0.1,0.4,0.1,0.4c0.6,0.2,1.2,0.4,1.8,0.6c27.4,8.3,55.4,11,83.8,6.9c28.2-4,51.6-16.3,69.1-39.1
		c8.9-11.6,16-24.1,20.5-38c5.5-17.6,6.4-35.4,3.4-53.5c-0.9-5.4-0.6-10.4,3.1-14.8c0.9-1.1,1.5-2.4,2.4-3.9
		c-3.6,0.3-6.9,0.6-10.1,0.8c-7,0.3-10.5-5.1-7.5-11.4c2-4.2,4.1-8.4,6.2-12.5c0.2-0.5,0.8-1.1,0.4-1.5c-0.5-0.7-1.1-0.1-1.7,0.2
		c-3.4,1.7-6.9,3.1-10.2,5c-4,2.3-7.5,2.1-11.5-0.3c-8-4.8-16.8-5.8-25.9-3.9c-18,3.7-29.9,19.8-32.5,37.2c-1,6.5-0.3,13,0.5,19.5
		c0.6,4.9-2.9,8.4-7.8,8.3c-14.1-0.5-27.8-3.1-41-8.1c-23.1-8.9-41.7-23.8-56.1-43.8c-0.4-0.6-0.7-1.4-1.6-1.7c-1,3.2-1.1,6.3-1,9.5
		c0.4,9.8,4,18.3,10.6,25.6c2.1,2.4,3.1,5.1,1.9,8.2c-1.2,3-3.6,4.3-6.7,4.8c-4.6,0.8-9.2,0.6-14.1,0c2.7,6.8,7,12.2,12.3,16.7
		c7,6,15.1,9.8,23.9,12.2c3.5,1,6.3,2.7,6.8,6.6c0.5,3.9-1.6,6.3-4.8,8.1C224.5,217.4,220.6,219.4,216.2,221.4z"/>
</g>
<g id="youtube" class="st0">
	<path class="st2" d="M93.3,214.7c1.1-0.6,0.6-1.6,0.6-2.4c0.9-13.1,1.6-26.1,4.7-38.9c4.8-20.1,20.9-34.4,41.5-37.2
		c24.3-3.4,48.7-3.9,73.1-4.8c29.7-1.1,59.4-0.6,89,0.7c18.4,0.8,36.8,1.5,55,4.6c22.2,3.8,37,18.8,41.1,41.2
		c2.9,16,3.8,32.2,4.1,48.4c0.4,21,0.3,42.1-1.7,63c-1,10.5-1.8,21.1-6.2,30.9c-7.5,16.6-20.6,26-38.6,28.6
		c-24.4,3.5-48.9,4-73.4,4.9c-29.2,1.1-58.4,0.6-87.5-0.7c-18.8-0.8-37.6-1.5-56.2-4.6c-22.2-3.8-37.1-18.8-41.1-41.1
		c-2-11.3-2.9-22.7-3.6-34.2c0-0.7,0.4-1.6-0.6-2.1c0-5,0-10.1,0-15.1c0.7-0.5,0.6-1.2,0.6-1.9c0-7.4,0-14.8,0-22.2
		c0-0.7,0.1-1.4-0.6-1.9C93.3,224.8,93.3,219.7,93.3,214.7z M249.8,154.9c-21.1,0.1-39.8,0.6-58.5,1.4c-15.4,0.7-30.8,1.4-46,3.4
		c-12.9,1.8-20.7,8.3-23.4,20c-1.3,5.5-2,11.1-2.5,16.7c-1.9,19.7-2.1,39.4-1.8,59.1c0.3,16.4,0.9,32.8,4.1,48.9
		c2,9.8,7.6,16.4,17.4,19.2c2.6,0.8,5.3,1.1,8,1.5c22.3,2.9,44.7,3.4,67.1,4.2c29.6,1.1,59.2,0.5,88.7-0.7
		c15.9-0.6,31.8-1.4,47.5-3.5c14.1-1.9,21.1-8.2,24-22.2c1.5-7,2.1-14.1,2.6-21.2c1.3-17,1.5-34,1.2-51c-0.2-15.9-0.9-31.8-3.6-47.5
		c-2.4-13.5-9-20.6-21.3-22.9c-4.5-0.8-9-1.4-13.5-1.8C309.2,155.9,278.3,155.4,249.8,154.9z"/>
	<path class="st2" d="M93.3,229.8c0.7,0.5,0.6,1.2,0.6,1.9c0,7.4,0,14.8,0,22.2c0,0.7,0.1,1.4-0.6,1.9
		C93.3,247.1,93.3,238.5,93.3,229.8z"/>
	<path class="st2" d="M217.3,193.7c28.1,16.3,56,32.4,84.4,48.8c-28.3,16.4-56.2,32.5-84.4,48.8
		C217.3,258.7,217.3,226.4,217.3,193.7z"/>
</g>
<g id="email">
	<path class="st3" d="M133.8,319.4c0-46.3,0-92.6,0-138.9c0.7-0.2,0.6-0.9,0.7-1.3c3.1-10.3,11.1-16.4,21.8-16.4
		c62.5,0,124.9,0,187.4,0c13,0,22.5,9.4,22.5,22.4c0,43.1,0,86.2,0,129.3c0,2-0.2,4.1-0.7,6c-2.6,10.1-11.1,16.4-22,16.4
		c-62.3,0-124.6,0-186.9,0c-0.5,0-1.1,0-1.6,0c-9.4-0.3-17.6-6.7-20.2-15.7C134.5,320.7,134.6,319.9,133.8,319.4z M351.6,193.3
		c-1,0.9-1.6,1.4-2.1,1.8c-31.3,27.1-62.5,54.2-93.8,81.2c-4.1,3.6-7.4,3.6-11.4,0c-31.4-27.2-62.9-54.5-94.3-81.7
		c-0.4-0.4-0.8-1.2-1.7-0.9c0,0.7,0,1.4,0,2c0,39.4,0,78.8,0,118.2c0,5.7,2.8,8.5,8.5,8.5c62.1,0,124.2,0,186.3,0
		c5.8,0,8.5-2.7,8.5-8.6c0-39.3,0-78.6,0-118C351.6,195.3,351.6,194.5,351.6,193.3z M347.1,178c-2.9-1-192.1-0.8-194.2,0.2
		c0.4,0.2,0.6,0.3,0.9,0.5c31.6,27.4,63.2,54.7,94.7,82.2c1.5,1.3,2.2,0.6,3.3-0.3c23.4-20.3,46.8-40.6,70.2-60.9
		C330.3,192.6,338.6,185.4,347.1,178z"/>
</g>
<g id="linkedin" class="st0">
	<g class="st4">
		<path class="st5" d="M373.9,365.7c-0.6,0.1-0.6,0.7-0.8,1.1c-1.9,3.4-4.7,5.1-8.6,5.1c-12.8,0-25.6,0-38.5,0
			c-6.4,0-9.9-3.5-9.9-9.9c0-28.4,0-56.8,0-85.2c0-3-0.2-5.9-0.6-8.9c-1.2-7.9-6.4-12.5-13.2-15.3c-10.5-4.3-21-1-27.6,8.2
			c-2.6,3.7-3.9,7.9-4.2,12.4c-0.1,1.4-0.1,2.7-0.1,4.1c0,28.4,0,56.8,0,85.2c0,6.2-3.2,9.4-9.4,9.4c-14.4,0-28.9,0-43.3,0
			c-6.2,0-9.3-3.1-9.3-9.4c0-50.1,0-100.2,0-150.3c0-6.6,3.2-9.7,9.8-9.7c12.7,0,25.3,0.2,38-0.1c5.6-0.1,10.6,4.1,10,10
			c-0.1,1.1,0,2.2,0,3.4c0.8,0.4,1-0.3,1.4-0.6c11.1-11.3,24.7-16.5,40.4-16.8c9.8-0.2,19.5,0.1,28.8,3.7
			c18.5,7.2,30.1,20.6,35.4,39.6c0.8,2.9,0.7,6,1.9,8.8C373.9,288.9,373.9,327.3,373.9,365.7z M258.2,236.7c0-0.8,0-1.6,0-2.3
			c0-7.1,0-14.2,0-21.3c0-1.7-0.3-2.4-2.2-2.4c-12.3,0.1-24.7,0.1-37,0c-1.7,0-2.1,0.4-2.1,2.1c0.1,49.5,0.1,99.1,0,148.6
			c0,1.9,0.6,2.2,2.3,2.2c13.4-0.1,26.8-0.1,40.2,0c2.4,0,3-0.5,3-3c-0.1-28,0-56-0.1-84c0-9,2.4-17,8.4-23.8
			c13.8-15.7,40.8-12.8,50.2,5.4c2.9,5.6,3.4,11.7,3.4,17.9c0.1,28.3,0.2,56.6,0.3,84.9c0,2,0.5,2.5,2.5,2.5
			c11.9-0.1,23.9-0.1,35.8,0c2.1,0,2.7-0.5,2.7-2.7c-0.1-34.3,0-68.6,0-102.8c0-4.5-0.4-9-1.5-13.4c-4.4-17-14.6-28.9-31.1-35.2
			c-8-3.1-16.4-3.1-24.8-2.9c-15.3,0.4-28,6.1-37.9,18.2C266.8,229.1,262.4,232.7,258.2,236.7z"/>
		<path class="st5" d="M130.2,286.8c0-23.4,0-46.8,0-70.2c0-4.4,0.8-8.3,4.4-11.3c2-1.7,4.4-2.8,7.1-2.8c11.4,0,22.9-0.1,34.4,0
			c6.3,0.1,11.6,5.3,12,11.7c0.1,0.9,0,1.8,0,2.7c0,46.9-0.1,93.9,0.1,140.8c0,7.9-5.5,14.3-14.1,14.2c-9.9-0.2-19.8,0-29.8,0
			c-8.8,0-14-5.2-14-14C130.2,334.2,130.2,310.5,130.2,286.8z M138.5,287c0,23.6,0,47.2,0,70.9c0,4,1.5,5.7,5.2,5.7
			c10.3,0,20.6,0,31,0c3.7,0,5.1-1.5,5.1-5.2c0-47.4,0-94.8,0-142.2c0-3.8-1.6-5.4-5.5-5.4c-9.9,0-19.8,0-29.8,0c-5,0-6,1-6.1,6.1
			C138.5,240.3,138.5,263.6,138.5,287z"/>
		<path class="st5" d="M192.2,161.3c-0.8,19.8-15.7,33.7-35.4,32.9c-17.2-0.6-31.4-16.8-30.7-34.9c0.7-17.5,16.5-31.8,34.2-31.2
			C179.1,128.7,193.1,145.7,192.2,161.3z M183.8,161.5c0.4-13.4-10.3-24.8-24.1-25c-14.4-0.3-25.2,10.3-25.4,24.4
			c-0.2,14.1,10.2,24.6,25.3,25.1C170.6,186.4,183.9,176.4,183.8,161.5z"/>
	</g>
</g>
</svg>
