<?xml version="1.0" encoding="utf-8"?>
<!-- Generator: Adobe Illustrator 27.0.0, SVG Export Plug-In . SVG Version: 6.00 Build 0)  -->
<svg version="1.1" id="Layer_1" xmlns="http://www.w3.org/2000/svg" xmlns:xlink="http://www.w3.org/1999/xlink" x="0px" y="0px"
	 viewBox="0 0 500 500" style="enable-background:new 0 0 500 500;" xml:space="preserve">
<style type="text/css">
	.st0{display:none;}
	.st1{display:inline;}
	.st2{fill:#999999;}
	.st3{fill:#2D3A4B;}
</style>
<g id="phone" class="st0">
	<g class="st1">
		<path class="st2" d="M342.7,443c-4.1-1.8-8.6-1.7-13-2.5c-20.8-4-40.3-11.7-59.2-20.9c-31.8-15.5-61-34.9-87.7-58.1
			c-27-23.5-50.5-50.1-71.1-79.4c-18.9-26.9-34.2-55.6-44.7-86.7c-5.6-16.6-9.2-33.5-8.7-51.2c0.5-16.6,5.9-31.2,17.5-43.1
			c10.6-10.8,21.2-21.7,32.3-32c16.7-15.5,38.1-15.5,54.8,0.8c17.5,17.1,35.1,34,51.6,52.1c13.6,14.9,13.4,34.4,0.1,49.7
			c-9.1,10.4-19,20-29.1,29.4c-2.1,2-2.7,3.4-1.3,6.2c10,20.8,24.4,38.4,40,55.1c15.9,17,33.4,32.2,53,44.7c5.5,3.5,11.4,6.2,17,9.5
			c1.9,1.1,2.7-0.1,3.7-1.1c8.5-8.5,17-17,25.5-25.5c6.6-6.5,14-11.8,23.4-13.4c12.6-2.1,23.4,1.9,32.2,10.6
			c16.9,16.6,33.7,33.3,50.3,50.2c16.1,16.5,17,36.4,2,53.9c-11.4,13.2-23.8,25.5-36.6,37.2c-9,8.2-20.1,12.5-32.3,13.6
			c-0.5,0-1,0.1-1.1,0.7C355.2,443,349,443,342.7,443z M353,423.6c11.8,0.3,22.5-2.8,31-11c11.2-10.9,22.2-22.1,32.8-33.7
			c7.8-8.5,7.7-18-0.3-26.2c-17-17.4-34.2-34.6-51.6-51.6c-6.6-6.5-15-6.6-22.6-1.2c-2,1.4-3.9,3.2-5.6,5
			c-9.3,9.3-18.6,18.6-28,27.9c-6.2,6.2-12.8,7.2-20.5,3.3c-5.5-2.8-10.9-5.6-16.2-8.8c-23.8-14.3-44.6-32.3-63.4-52.6
			c-17.3-18.7-33.1-38.6-43.6-62.1c-4.4-10-3.5-15.7,4.6-23.1c9.4-8.7,18.4-17.8,27.3-26.9c10.6-10.9,10.5-19.6,0.1-30.6
			c-0.1-0.1-0.2-0.2-0.3-0.3c-15.5-15.5-31-31-46.6-46.5c-2.5-2.5-5.1-4.8-8.4-6.2c-9.1-3.7-16.1,0.2-22.3,6.3
			c-9.3,9.1-18.5,18.4-27.7,27.7c-4.7,4.8-8.7,10-11,16.4c-4.5,12.6-3.6,25.5-1,38.2c5.1,25.2,15.1,48.7,27.6,71
			c22.8,40.7,51.9,76.4,86.9,107.2c30.7,27.1,65,48.8,102.8,64.6C315,417.8,333.5,423,353,423.6z"/>
	</g>
</g>
<g id="location">
	<g>
		<path class="st3" d="M246.8,397.2c-7.1-3.1-10.5-9.6-14.4-15.6c-22.5-34.1-45-68.2-67.5-102.3c-10.5-15.9-18.1-32.9-21.5-51.6
			c-2.9-15.6-1.6-30.9,2.8-45.9c6.5-22.3,19-40.6,37.2-55.1c13.7-10.9,29.2-18.2,46.4-21.2c37.3-6.5,69.9,3.4,97,29.7
			c17.2,16.7,27.3,37.4,30.8,61.3c3.7,25.3-2.6,48.5-14.6,70.5c-8.5,15.5-19,29.8-28.6,44.5c-16.4,25.1-33,50-49.5,75.1
			c-3.1,4.8-6.5,9-12.3,10.6C250.7,397.2,248.8,397.2,246.8,397.2z M154.6,208.9c-0.3,5.6,0.3,11.1,1.3,16.5
			c3,16.9,10,32.2,19.4,46.4c24,36.5,48.1,73,72.2,109.5c2.8,4.2,2.8,4.2,5.6,0c24.1-36.5,48.2-72.9,72.2-109.5
			c7-10.7,12.8-22.1,16.5-34.4c4.4-14.7,5.5-29.4,2.3-44.4c-3.7-17.7-11.5-33.4-24.1-46.4c-25.6-26.2-56.6-35.6-92.3-27.6
			c-22.5,5.1-40.6,17.6-54.4,36.1C161.5,171.1,155.4,189.1,154.6,208.9z"/>
		<path class="st3" d="M250.2,269.3c-31.7-0.1-57.4-25.8-57.3-57.5c0.1-31.6,26-57.4,57.5-57.3c31.6,0.1,57.4,26,57.3,57.6
			C307.6,243.7,281.8,269.4,250.2,269.3z M250.2,167.2c-24.5,0.1-44.7,20.3-44.7,44.8c0.1,24.6,20.2,44.7,44.8,44.6
			c24.6,0,44.7-20.2,44.7-44.7C295,187.4,274.7,167.1,250.2,167.2z"/>
	</g>
</g>
</svg>
