<?xml version="1.0" encoding="utf-8"?>
<!-- Generator: Adobe Illustrator 27.0.0, SVG Export Plug-In . SVG Version: 6.00 Build 0)  -->
<svg version="1.1" id="Layer_1" xmlns="http://www.w3.org/2000/svg" xmlns:xlink="http://www.w3.org/1999/xlink" x="0px" y="0px"
	 viewBox="0 0 500 500" style="enable-background:new 0 0 500 500;" xml:space="preserve">
<style type="text/css">
	.st0{fill:#2D3A4B;}
	.st1{display:none;}
	.st2{display:inline;}
	.st3{fill:#999999;}
</style>
<g id="phone">
	<g>
		<path class="st0" d="M315.6,386.7c-2.9-1.3-6.1-1.2-9.2-1.8c-14.7-2.8-28.6-8.3-42-14.9c-22.5-11-43.3-24.8-62.2-41.2
			c-19.1-16.6-35.8-35.5-50.4-56.3c-13.4-19-24.2-39.4-31.7-61.5c-4-11.8-6.5-23.8-6.2-36.3c0.3-11.8,4.1-22.1,12.4-30.6
			c7.5-7.7,15-15.4,22.9-22.7c11.8-11,27-11,38.9,0.6c12.4,12.1,24.9,24.1,36.6,37c9.6,10.6,9.5,24.4,0.1,35.2
			c-6.4,7.4-13.5,14.2-20.6,20.8c-1.5,1.4-1.9,2.4-0.9,4.4c7.1,14.8,17.3,27.2,28.4,39.1c11.3,12.1,23.7,22.8,37.6,31.7
			c3.9,2.5,8.1,4.4,12.1,6.8c1.4,0.8,1.9-0.1,2.6-0.8c6-6,12-12.1,18.1-18.1c4.7-4.6,9.9-8.4,16.6-9.5c8.9-1.5,16.6,1.4,22.9,7.5
			c12,11.8,23.9,23.6,35.7,35.6c11.4,11.7,12.1,25.8,1.4,38.2c-8,9.3-16.9,18.1-26,26.4c-6.4,5.8-14.3,8.8-22.9,9.6
			c-0.4,0-0.7,0.1-0.8,0.5C324.5,386.7,320,386.7,315.6,386.7z M322.9,372.9c8.3,0.2,16-2,22-7.8c8-7.7,15.7-15.7,23.2-23.9
			c5.5-6,5.5-12.8-0.2-18.6c-12-12.4-24.3-24.5-36.6-36.6c-4.7-4.6-10.6-4.7-16-0.9c-1.4,1-2.7,2.3-4,3.5
			c-6.6,6.6-13.2,13.2-19.8,19.8c-4.4,4.4-9.1,5.1-14.6,2.3c-3.9-2-7.7-4-11.5-6.2c-16.9-10.1-31.7-22.9-45-37.3
			c-12.3-13.3-23.5-27.4-30.9-44.1c-3.1-7.1-2.5-11.1,3.2-16.4c6.7-6.2,13.1-12.6,19.4-19.1c7.5-7.7,7.5-13.9,0-21.7
			c-0.1-0.1-0.1-0.1-0.2-0.2c-11-11-22-22-33-33c-1.8-1.8-3.6-3.4-6-4.4c-6.4-2.7-11.4,0.1-15.8,4.5c-6.6,6.5-13.1,13-19.6,19.6
			c-3.3,3.4-6.1,7.1-7.8,11.6c-3.2,9-2.6,18.1-0.7,27.1c3.6,17.9,10.7,34.5,19.6,50.4c16.1,28.9,36.8,54.2,61.6,76.1
			c21.8,19.2,46.1,34.6,72.9,45.8C295.9,368.8,309,372.4,322.9,372.9z"/>
	</g>
</g>
<g id="location" class="st1">
	<g class="st2">
		<path class="st3" d="M246.8,397.2c-7.1-3.1-10.5-9.6-14.4-15.6c-22.5-34.1-45-68.2-67.5-102.3c-10.5-15.9-18.1-32.9-21.5-51.6
			c-2.9-15.6-1.6-30.9,2.8-45.9c6.5-22.3,19-40.6,37.2-55.1c13.7-10.9,29.2-18.2,46.4-21.2c37.3-6.5,69.9,3.4,97,29.7
			c17.2,16.7,27.3,37.4,30.8,61.3c3.7,25.3-2.6,48.5-14.6,70.5c-8.5,15.5-19,29.8-28.6,44.5c-16.4,25.1-33,50-49.5,75.1
			c-3.1,4.8-6.5,9-12.3,10.6C250.7,397.2,248.8,397.2,246.8,397.2z M154.6,208.9c-0.3,5.6,0.3,11.1,1.3,16.5
			c3,16.9,10,32.2,19.4,46.4c24,36.5,48.1,73,72.2,109.5c2.8,4.2,2.8,4.2,5.6,0c24.1-36.5,48.2-72.9,72.2-109.5
			c7-10.7,12.8-22.1,16.5-34.4c4.4-14.7,5.5-29.4,2.3-44.4c-3.7-17.7-11.5-33.4-24.1-46.4c-25.6-26.2-56.6-35.6-92.3-27.6
			c-22.5,5.1-40.6,17.6-54.4,36.1C161.5,171.1,155.4,189.1,154.6,208.9z"/>
		<path class="st3" d="M250.2,269.3c-31.7-0.1-57.4-25.8-57.3-57.5c0.1-31.6,26-57.4,57.5-57.3c31.6,0.1,57.4,26,57.3,57.6
			C307.6,243.7,281.8,269.4,250.2,269.3z M250.2,167.2c-24.5,0.1-44.7,20.3-44.7,44.8c0.1,24.6,20.2,44.7,44.8,44.6
			c24.6,0,44.7-20.2,44.7-44.7S274.7,167.1,250.2,167.2z"/>
	</g>
</g>
</svg>
