<?xml version="1.0" encoding="utf-8"?>
<!-- Generator: Adobe Illustrator 26.0.1, SVG Export Plug-In . SVG Version: 6.00 Build 0)  -->
<svg version="1.1" id="Layer_2_00000025406242695557107320000003880244384886933395_"
	 xmlns="http://www.w3.org/2000/svg" xmlns:xlink="http://www.w3.org/1999/xlink" x="0px" y="0px" viewBox="0 0 123 110"
	 style="enable-background:new 0 0 123 110;" xml:space="preserve">
<style type="text/css">
	.st0{fill:#FFE115;}
</style>
<path class="st0" d="M91.6,100.8c-15.1-0.1-26-13.6-23.3-28.6c3-17.3,9.2-33.3,18.4-48.1c4.1-6.6,10.9-8.7,16.9-5.1
	c6.1,3.7,7.6,10.9,3.6,17.6c-2.8,4.6-5.3,9.3-7.6,14.1c-1,2.2-1,3.1,1.6,4.2c10.7,4.5,16.4,15.7,14,26.8
	C112.7,93,103,100.8,91.6,100.8z"/>
<path class="st0" d="M31.7,100.8C16.7,100.7,5.8,87.1,8.4,72.1c3-17.3,9.2-33.3,18.4-48.1c4.1-6.6,10.9-8.6,16.9-5
	c6.1,3.7,7.6,10.9,3.5,17.6c-2.8,4.6-5.3,9.3-7.6,14.1c-1,2.2-0.9,3.1,1.6,4.2c9,3.9,14,11.1,14.5,20.9c0.4,10-4.1,17.5-12.9,22.3
	C39.4,100,35.7,100.8,31.7,100.8z"/>
</svg>
