<?xml version="1.0" encoding="utf-8"?>
<!-- Generator: Adobe Illustrator 26.0.1, SVG Export Plug-In . SVG Version: 6.00 Build 0)  -->
<svg version="1.1" xmlns="http://www.w3.org/2000/svg" xmlns:xlink="http://www.w3.org/1999/xlink" x="0px" y="0px"
	 viewBox="0 0 500 500" style="enable-background:new 0 0 500 500;" xml:space="preserve">
<style type="text/css">
	.st0{display:none;}
	.st1{display:inline;fill:#2D3A4B;}
	.st2{fill:#2D3A4B;}
	.st3{display:inline;}
	.st4{fill:#FFE115;}
</style>
<g id="facebook" class="st0">
	<path class="st1" d="M357.56,70.69c6.13,2.85,8.4,7.73,8.25,14.36c-0.24,10.46-0.06,20.93-0.07,31.4
		c-0.01,8.57-4.89,13.45-13.46,13.51c-7.16,0.05-14.33,0.08-21.49,0.14c-0.8,0.01-1.61,0.09-2.39,0.25c-3.37,0.68-3.93,1.32-4.2,4.8
		c-0.45,5.79-0.1,11.59-0.26,17.38c-0.05,1.82,1.03,1.62,2.18,1.62c8.13-0.01,16.27,0.21,24.39-0.06
		c8.91-0.29,14.03,5.87,13.87,13.9c-0.22,11.67-0.05,23.35-0.07,35.02c-0.01,8.58-4.91,13.52-13.43,13.54
		c-8.21,0.02-16.42,0.07-24.63-0.05c-1.97-0.03-2.32,0.6-2.32,2.41c0.05,28.5,0.04,57,0.03,85.5c0,7.26-3.45,12.05-9.66,13.37
		c-1.24,0.26-2.56,0.28-3.84,0.28c-11.99,0.02-24-0.25-35.98,0.11c-7.79,0.23-14.43-4.32-14.33-14.46
		c0.26-28.01,0.09-56.03,0.09-84.05c0-3.1,0-3.1-3.22-3.1c-6.28,0-12.56,0.02-18.84-0.01c-8.13-0.04-13.06-4.95-13.08-13.1
		c-0.03-12.08-0.03-24.15,0-36.23c0.02-8.21,4.83-13.01,13.03-13.06c6.36-0.04,12.72-0.11,19.08,0.05c2.34,0.06,3.16-0.39,3.1-2.97
		c-0.15-7.16-0.21-14.34,0.18-21.49c0.97-17.44,6.87-32.77,20.21-44.64c8.65-7.7,18.93-11.93,30.23-13.9c0.44-0.08,1,0.11,1.21-0.51
		C327.28,70.69,342.42,70.69,357.56,70.69z M309.39,256.08c0-14.81-0.01-29.62,0-44.44c0-6.65,2.95-9.62,9.53-9.63
		c9.5-0.01,19-0.05,28.49,0.04c1.83,0.02,2.44-0.37,2.42-2.34c-0.11-9.58-0.1-19.16,0.01-28.74c0.02-1.92-0.52-2.37-2.38-2.35
		c-9.66,0.1-19.32,0.07-28.98,0.03c-5.4-0.02-8.9-2.88-9-7.98c-0.16-9.09-0.5-18.2,0.28-27.27c0.54-6.24,3.02-11.47,8.63-14.79
		c3.47-2.05,7.33-2.89,11.3-3.01c6.52-0.19,13.04-0.18,19.56-0.19c1.32,0,2.03-0.11,2.01-1.77c-0.08-9.1-0.06-18.19-0.01-27.29
		c0.01-1.25-0.32-1.66-1.62-1.65c-9.82,0.08-19.65-0.16-29.46,0.17c-11.03,0.37-21.23,3.53-29.71,10.94
		c-10.4,9.08-14.79,21.03-15.44,34.42c-0.46,9.64-0.18,19.31-0.24,28.97c-0.04,6.33-3.17,9.44-9.55,9.45
		c-7.89,0.01-15.78,0.05-23.67-0.03c-1.56-0.02-2.01,0.38-2,1.97c0.08,9.74,0.09,19.48-0.01,29.22c-0.02,1.85,0.5,2.25,2.28,2.23
		c8.29-0.1,16.58-0.09,24.87-0.01c4.38,0.04,7.4,2.86,7.93,7.19c0.13,1.03,0.13,2.09,0.13,3.13c0.01,29.62,0.03,59.25-0.04,88.87
		c0,1.92,0.52,2.36,2.38,2.34c9.98-0.09,19.96-0.09,29.94,0c1.86,0.02,2.39-0.43,2.38-2.34
		C309.35,286.19,309.39,271.14,309.39,256.08z"/>
</g>
<g id="twitter">
	<path class="st2" d="M373.91,185.08c-4.06,6.54-8.11,13.08-12.2,19.6c-0.6,0.95-0.35,1.86-0.2,2.79
		c4.02,25.52,1.52,50.27-8.91,74.03c-5.84,13.3-13.95,25.15-23.47,36.09c-19.95,22.93-45.69,34.42-75.25,38.39
		c-29.95,4.02-59.31,0.93-88.13-7.82c-9.16-2.78-18.12-6.15-26.24-11.41c-2.03-1.32-3.94-2.79-5.68-4.48
		c-2.44-2.36-3.24-5.17-2.02-8.36c1.24-3.25,3.87-4.64,7.2-4.68c4.92-0.07,9.84,0.07,14.76-0.02c10.54-0.19,20.85-1.62,30.66-5.77
		c4.92-2.08,9.43-4.81,13.91-8.23c-2.95-0.88-5.69-1.64-8.41-2.51c-14.59-4.67-27.99-11.4-38.98-22.36
		c-2.26-2.26-3.67-4.72-2.79-7.98c0.87-3.22,3.16-4.87,6.33-5.57c2.19-0.49,4.33-1.18,6.99-1.92c-3.88-2.33-7.46-4.25-10.73-6.67
		c-13.72-10.14-21.6-23.8-24.52-40.44c-0.93-5.29,3.94-9.56,9.26-8.24c2.63,0.65,5.2,1.51,8.05,2.35c-1.17-3.04-2.41-5.72-3.24-8.52
		c-4.52-15.25-3.17-29.76,5.77-43.22c3.98-6,10.32-5.8,13.84,0.5c7.41,13.23,16.74,24.83,28.63,34.3
		c15.34,12.22,32.77,19.6,52.22,22.12c3.58,0.46,3.51,0.39,3.55-3.21c0.21-21.43,7.77-39.55,25.61-52.02
		c16.28-11.38,34.04-12.65,52.28-4.53c1.47,0.65,2.56,0.72,4.02,0c9.42-4.7,18.88-9.33,28.36-13.92c5.26-2.55,10.2-0.4,11.36,4.81
		c0.45,2.02-0.19,3.81-1.06,5.57c-3.35,6.78-6.71,13.54-10.05,20.33c-0.35,0.7-0.91,1.34-0.83,2.47c3.19-0.25,6.39-0.29,9.53-0.79
		c4.94-0.79,8.44,0.76,10.4,5.46C373.91,182.49,373.91,183.79,373.91,185.08z M170.27,277.24c6.75,4.62,13.81,7.84,21.19,10.44
		c7.7,2.71,15.68,4.17,23.67,5.68c6.36,1.2,8.51,7.77,4.18,12.51c-11.04,12.1-24.09,20.99-40.23,24.95
		c-3.63,0.89-7.34,1.38-11.01,2.23c0.11,0.28,0.12,0.38,0.15,0.39c0.6,0.22,1.2,0.44,1.82,0.63c27.45,8.31,55.35,11,83.84,6.94
		c28.19-4.02,51.58-16.28,69.13-39.15c8.91-11.6,16.03-24.06,20.45-38.04c5.55-17.57,6.36-35.45,3.44-53.52
		c-0.88-5.45-0.59-10.38,3.07-14.79c0.89-1.08,1.5-2.39,2.42-3.9c-3.64,0.28-6.85,0.61-10.06,0.77c-7,0.34-10.54-5.05-7.48-11.38
		c2.03-4.2,4.13-8.36,6.2-12.54c0.25-0.49,0.77-1.05,0.38-1.53c-0.52-0.66-1.15-0.12-1.72,0.16c-3.39,1.66-6.89,3.13-10.16,5.01
		c-4,2.3-7.54,2.07-11.52-0.29c-8.03-4.76-16.81-5.81-25.91-3.93c-18.02,3.71-29.85,19.79-32.5,37.24
		c-0.99,6.54-0.3,12.99,0.54,19.49c0.63,4.87-2.9,8.44-7.8,8.26c-14.1-0.51-27.83-3.05-41.02-8.14
		c-23.13-8.93-41.66-23.77-56.12-43.83c-0.42-0.59-0.7-1.36-1.57-1.71c-0.96,3.21-1.09,6.34-0.97,9.47
		c0.37,9.81,4.01,18.29,10.56,25.56c2.15,2.39,3.1,5.1,1.85,8.22c-1.2,2.99-3.61,4.28-6.71,4.8c-4.64,0.77-9.25,0.62-14.11,0.01
		c2.74,6.78,6.99,12.17,12.31,16.73c6.96,5.98,15.09,9.77,23.86,12.22c3.51,0.98,6.26,2.68,6.76,6.61c0.5,3.91-1.64,6.26-4.81,8.15
		C178.6,273.23,174.7,275.29,170.27,277.24z"/>
</g>
<g id="youtube" class="st0">
	<g class="st3">
		<path class="st4" d="M95.37,222.23c1.11-0.56,0.56-1.6,0.62-2.4c0.86-13.05,1.61-26.1,4.67-38.88
			c4.81-20.12,20.88-34.41,41.45-37.25c24.27-3.35,48.72-3.9,73.14-4.8c29.69-1.09,59.37-0.56,89.03,0.69
			c18.38,0.78,36.8,1.48,54.99,4.61c22.19,3.82,36.98,18.77,41.06,41.2c2.91,16,3.77,32.16,4.1,48.36
			c0.42,21.03,0.29,42.07-1.73,63.04c-1.01,10.5-1.81,21.14-6.2,30.9c-7.49,16.63-20.64,25.97-38.62,28.57
			c-24.35,3.52-48.91,3.96-73.44,4.85c-29.18,1.06-58.36,0.57-87.52-0.67c-18.79-0.8-37.6-1.48-56.2-4.64
			c-22.22-3.78-37.11-18.78-41.09-41.15c-2.01-11.32-2.92-22.73-3.63-34.18c-0.04-0.71,0.44-1.65-0.62-2.09c0-5.03,0-10.06,0-15.1
			c0.67-0.48,0.61-1.2,0.61-1.9c0-7.39,0-14.78,0-22.17c0-0.7,0.06-1.42-0.61-1.9C95.37,232.29,95.37,227.26,95.37,222.23z
			 M251.83,162.41c-21.08,0.14-39.79,0.62-58.49,1.42c-15.37,0.66-30.75,1.37-46.02,3.44c-12.94,1.76-20.7,8.27-23.41,20
			c-1.27,5.49-2,11.08-2.54,16.68c-1.89,19.66-2.14,39.38-1.76,59.11c0.32,16.39,0.91,32.79,4.14,48.94
			c1.97,9.84,7.64,16.42,17.35,19.25c2.59,0.75,5.3,1.14,7.99,1.49c22.29,2.88,44.72,3.35,67.14,4.2
			c29.58,1.12,59.16,0.48,88.72-0.72c15.88-0.64,31.75-1.38,47.53-3.5c14.14-1.9,21.07-8.21,23.99-22.18
			c1.46-7,2.1-14.12,2.64-21.24c1.3-16.97,1.49-33.98,1.23-50.98c-0.25-15.89-0.85-31.78-3.59-47.49
			c-2.35-13.46-8.96-20.61-21.29-22.86c-4.45-0.81-8.95-1.41-13.45-1.81C311.23,163.46,280.35,162.89,251.83,162.41z"/>
		<path class="st4" d="M95.37,237.33c0.67,0.48,0.61,1.2,0.61,1.9c0,7.39,0,14.78,0,22.17c0,0.7,0.06,1.42-0.61,1.9
			C95.37,254.64,95.37,245.98,95.37,237.33z"/>
		<path class="st4" d="M219.37,201.19c28.14,16.28,56,32.4,84.36,48.81c-28.27,16.36-56.17,32.5-84.36,48.82
			C219.37,266.19,219.37,233.89,219.37,201.19z"/>
	</g>
</g>
<g id="email" class="st0">
	<path class="st1" d="M133.83,319.43c0-46.29,0-92.57,0-138.86c0.7-0.18,0.55-0.85,0.68-1.3c3.13-10.34,11.1-16.39,21.78-16.39
		c62.47-0.01,124.94-0.02,187.41,0c13.01,0,22.45,9.44,22.46,22.45c0.02,43.11,0.01,86.22,0.02,129.33c0,2.05-0.19,4.07-0.72,6.05
		c-2.64,10.06-11.12,16.41-21.98,16.41c-62.32,0.01-124.64,0-186.95,0c-0.53,0-1.06,0-1.59-0.02c-9.38-0.28-17.65-6.72-20.25-15.73
		C134.49,320.71,134.62,319.85,133.83,319.43z M351.64,193.31c-0.99,0.86-1.56,1.35-2.13,1.84c-31.26,27.08-62.51,54.17-93.77,81.24
		c-4.15,3.59-7.35,3.58-11.43,0.04c-31.43-27.23-62.85-54.47-94.29-81.68c-0.45-0.39-0.75-1.19-1.67-0.89c0,0.69,0,1.37,0,2.04
		c0,39.4,0,78.81,0,118.21c0,5.7,2.78,8.49,8.47,8.49c62.09,0,124.18,0,186.27,0c5.84,0,8.55-2.74,8.55-8.63
		c0-39.33,0-78.65,0-117.98C351.64,195.27,351.64,194.54,351.64,193.31z M347.1,178.02c-2.9-0.99-192.05-0.82-194.21,0.21
		c0.36,0.21,0.65,0.34,0.87,0.53c31.59,27.38,63.2,54.74,94.74,82.18c1.54,1.34,2.23,0.64,3.32-0.3
		c23.41-20.32,46.83-40.61,70.25-60.92C330.33,192.56,338.61,185.38,347.1,178.02z"/>
</g>
<g id="linkedin" class="st0">
	<g class="st3">
		<path class="st2" d="M373.9,365.67c-0.6,0.11-0.6,0.7-0.81,1.09c-1.87,3.43-4.7,5.13-8.64,5.12c-12.82-0.03-25.65-0.01-38.47-0.01
			c-6.35,0-9.88-3.51-9.89-9.86c-0.01-28.39,0.01-56.78-0.02-85.17c0-2.97-0.18-5.93-0.64-8.9c-1.23-7.91-6.35-12.53-13.23-15.33
			c-10.48-4.26-21-1.02-27.56,8.16c-2.63,3.68-3.9,7.91-4.24,12.4c-0.1,1.37-0.12,2.74-0.12,4.11c-0.01,28.39,0,56.78-0.01,85.17
			c0,6.16-3.17,9.39-9.35,9.41c-14.44,0.03-28.87,0.03-43.31,0c-6.25-0.01-9.3-3.13-9.3-9.38c0-50.09,0-100.17,0-150.26
			c0-6.55,3.17-9.7,9.79-9.7c12.66-0.01,25.33,0.22,37.99-0.1c5.56-0.14,10.65,4.1,9.99,10.02c-0.12,1.11-0.02,2.25-0.02,3.35
			c0.8,0.44,1.04-0.28,1.38-0.62c11.09-11.29,24.72-16.51,40.36-16.83c9.78-0.2,19.51,0.07,28.8,3.71
			c18.48,7.25,30.09,20.59,35.38,39.63c0.81,2.9,0.7,5.99,1.91,8.79C373.9,288.87,373.9,327.27,373.9,365.67z M258.23,236.7
			c0-0.79,0-1.56,0-2.33c0-7.1-0.05-14.2,0.04-21.29c0.02-1.72-0.29-2.36-2.21-2.35c-12.34,0.09-24.68,0.09-37.02,0.01
			c-1.71-0.01-2.09,0.45-2.09,2.12c0.05,49.52,0.05,99.05-0.01,148.57c0,1.9,0.58,2.22,2.32,2.21c13.39-0.07,26.78-0.11,40.17,0.02
			c2.42,0.02,3.05-0.53,3.04-3.01c-0.1-27.99-0.02-55.98-0.09-83.97c-0.02-8.97,2.36-16.97,8.37-23.79
			c13.84-15.69,40.8-12.81,50.23,5.42c2.9,5.61,3.36,11.71,3.39,17.87c0.13,28.31,0.25,56.62,0.29,84.93c0,1.99,0.53,2.54,2.53,2.53
			c11.94-0.1,23.87-0.1,35.81,0c2.1,0.02,2.7-0.49,2.7-2.66c-0.07-34.28-0.05-68.56-0.05-102.84c0-4.53-0.36-9.03-1.5-13.42
			c-4.39-17-14.59-28.92-31.11-35.22c-8.02-3.06-16.42-3.08-24.81-2.88c-15.33,0.35-28.01,6.14-37.87,18.17
			C266.84,229.1,262.39,232.66,258.23,236.7z"/>
		<path class="st2" d="M130.22,286.78c0-23.39,0.02-46.78-0.02-70.17c-0.01-4.37,0.84-8.31,4.37-11.28
			c2.04-1.71,4.37-2.76,7.05-2.77c11.45-0.04,22.91-0.12,34.36,0.01c6.34,0.07,11.57,5.34,12.01,11.68
			c0.06,0.88,0.04,1.77,0.04,2.66c0,46.94-0.1,93.88,0.11,140.82c0.04,7.88-5.47,14.34-14.15,14.17
			c-9.92-0.19-19.84-0.03-29.76-0.05c-8.78-0.01-14-5.19-14.01-13.95C130.2,334.2,130.22,310.49,130.22,286.78z M138.51,287.02
			c0,23.63,0,47.25,0,70.88c0,3.97,1.51,5.67,5.19,5.68c10.32,0.04,20.64,0.04,30.96,0c3.67-0.02,5.12-1.54,5.12-5.17
			c0.01-47.41,0.01-94.82,0-142.23c0-3.82-1.62-5.4-5.48-5.4c-9.92-0.01-19.84,0-29.75,0c-5.02,0-6.04,1.03-6.05,6.1
			C138.5,240.26,138.51,263.64,138.51,287.02z"/>
		<path class="st2" d="M192.16,161.31c-0.8,19.81-15.67,33.66-35.36,32.94c-17.22-0.64-31.42-16.79-30.67-34.9
			c0.72-17.54,16.5-31.77,34.17-31.25C179.1,128.66,193.05,145.69,192.16,161.31z M183.83,161.51
			c0.39-13.41-10.26-24.76-24.05-25.03c-14.44-0.28-25.17,10.32-25.37,24.44c-0.2,14.14,10.22,24.59,25.32,25.09
			C170.62,186.38,183.91,176.44,183.83,161.51z"/>
	</g>
</g>
</svg>
